<svg width="8" height="8" viewBox="0 0 8 8" fill="none" xmlns="http://www.w3.org/2000/svg">
<mask id="path-1-inside-1" fill="white">
<path fill-rule="evenodd" clip-rule="evenodd" d="M3.1514 5.04066H4.10085H4.10096C4.48474 5.04066 4.86852 5.04066 5.2725 5.00898C6.76738 4.94562 7.95923 3.9477 7.99963 2.72801C8.01983 1.47664 6.84818 0.383673 5.35331 0.320313C4.40387 0.288633 3.47462 0.288632 2.48477 0.304472C2.04035 0.320312 1.59593 0.320313 1.13131 0.320313H0.929297V3.52008H0.929199V3.96361H0V5.0249H0.929199V5.45264H0.0200195V6.51393H0.929199V7.98698H2.38367V6.51393H4.62585V5.45264H2.38367V5.04066H3.1514ZM2.72713 3.97938H3.01001H3.35341H3.43422C4.28266 3.99522 4.86849 3.97937 5.2119 3.96353C6.01994 3.90017 6.66638 3.32993 6.64618 2.66464C6.64618 1.96768 5.95934 1.39744 5.0907 1.36576C4.6077 1.34209 4.12469 1.34495 3.62484 1.34791H3.62482H3.62481H3.6248H3.62478H3.62477H3.62476C3.45565 1.34891 3.28462 1.34992 3.11101 1.34992H2.38377V3.96361H2.72713V3.97938Z"/>
</mask>
<path fill-rule="evenodd" clip-rule="evenodd" d="M3.1514 5.04066H4.10085H4.10096C4.48474 5.04066 4.86852 5.04066 5.2725 5.00898C6.76738 4.94562 7.95923 3.9477 7.99963 2.72801C8.01983 1.47664 6.84818 0.383673 5.35331 0.320313C4.40387 0.288633 3.47462 0.288632 2.48477 0.304472C2.04035 0.320312 1.59593 0.320313 1.13131 0.320313H0.929297V3.52008H0.929199V3.96361H0V5.0249H0.929199V5.45264H0.0200195V6.51393H0.929199V7.98698H2.38367V6.51393H4.62585V5.45264H2.38367V5.04066H3.1514ZM2.72713 3.97938H3.01001H3.35341H3.43422C4.28266 3.99522 4.86849 3.97937 5.2119 3.96353C6.01994 3.90017 6.66638 3.32993 6.64618 2.66464C6.64618 1.96768 5.95934 1.39744 5.0907 1.36576C4.6077 1.34209 4.12469 1.34495 3.62484 1.34791H3.62482H3.62481H3.6248H3.62478H3.62477H3.62476C3.45565 1.34891 3.28462 1.34992 3.11101 1.34992H2.38377V3.96361H2.72713V3.97938Z" fill="#C4C4C4"/>
<path d="M5.2725 5.00898L5.26191 4.75904L5.25296 4.75975L5.2725 5.00898ZM7.99963 2.72801L8.24953 2.73629L8.2496 2.73204L7.99963 2.72801ZM5.35331 0.320313L5.3639 0.0705268L5.36165 0.0704518L5.35331 0.320313ZM2.48477 0.304472L2.48077 0.0544555L2.47587 0.0546303L2.48477 0.304472ZM0.929297 0.320313V0.0703127H0.679297V0.320313H0.929297ZM0.929297 3.52008V3.77008H1.1793V3.52008H0.929297ZM0.929199 3.52008V3.27008H0.679199V3.52008H0.929199ZM0.929199 3.96361V4.21361H1.1792V3.96361H0.929199ZM0 3.96361V3.71361H-0.25V3.96361H0ZM0 5.0249H-0.25V5.2749H0V5.0249ZM0.929199 5.0249H1.1792V4.7749H0.929199V5.0249ZM0.929199 5.45264V5.70264H1.1792V5.45264H0.929199ZM0.0200195 5.45264V5.20264H-0.22998V5.45264H0.0200195ZM0.0200195 6.51393H-0.22998V6.76393H0.0200195V6.51393ZM0.929199 6.51393H1.1792V6.26393H0.929199V6.51393ZM0.929199 7.98698H0.679199V8.23698H0.929199V7.98698ZM2.38367 7.98698V8.23698H2.63367V7.98698H2.38367ZM2.38367 6.51393V6.26393H2.13367V6.51393H2.38367ZM4.62585 6.51393V6.76393H4.87585V6.51393H4.62585ZM4.62585 5.45264H4.87585V5.20264H4.62585V5.45264ZM2.38367 5.45264H2.13367V5.70264H2.38367V5.45264ZM2.38367 5.04066V4.79066H2.13367V5.04066H2.38367ZM2.72713 3.97938H2.47713V4.22938H2.72713V3.97938ZM3.43422 3.97938L3.43889 3.72938H3.43422V3.97938ZM5.2119 3.96353L5.22343 4.2134L5.23145 4.21277L5.2119 3.96353ZM6.64618 2.66464H6.39606L6.39629 2.67223L6.64618 2.66464ZM5.0907 1.36576L5.07846 1.61548L5.08159 1.61559L5.0907 1.36576ZM3.62484 1.34791L3.62484 1.59791L3.62632 1.5979L3.62484 1.34791ZM3.62476 1.34791V1.0979L3.62328 1.09791L3.62476 1.34791ZM2.38377 1.34992V1.09992H2.13377V1.34992H2.38377ZM2.38377 3.96361H2.13377V4.21361H2.38377V3.96361ZM2.72713 3.96361H2.97713V3.71361H2.72713V3.96361ZM4.10085 4.79066H3.1514V5.29066H4.10085V4.79066ZM4.10096 4.79066H4.10085V5.29066H4.10096V4.79066ZM5.25296 4.75975C4.86022 4.79054 4.48597 4.79066 4.10096 4.79066V5.29066C4.4835 5.29066 4.87682 5.29078 5.29205 5.25822L5.25296 4.75975ZM7.74977 2.71973C7.71503 3.76853 6.6706 4.6995 5.26192 4.75921L5.28309 5.25876C6.86415 5.19174 8.20343 4.12686 8.2495 2.73629L7.74977 2.71973ZM5.34273 0.570088C6.73717 0.629192 7.76716 1.64059 7.74967 2.72397L8.2496 2.73204C8.27251 1.31269 6.9592 0.138154 5.3639 0.070537L5.34273 0.570088ZM2.48877 0.55444C3.47615 0.538639 4.40101 0.538676 5.34498 0.570174L5.36165 0.0704518C4.40673 0.0385889 3.47309 0.038624 2.48077 0.0545037L2.48877 0.55444ZM1.13131 0.570313C1.59514 0.570313 2.04405 0.570339 2.49368 0.554313L2.47587 0.0546303C2.03666 0.0702847 1.59672 0.0703127 1.13131 0.0703127V0.570313ZM0.929297 0.570313H1.13131V0.0703127H0.929297V0.570313ZM1.1793 3.52008V0.320313H0.679297V3.52008H1.1793ZM0.929199 3.77008H0.929297V3.27008H0.929199V3.77008ZM1.1792 3.96361V3.52008H0.679199V3.96361H1.1792ZM0 4.21361H0.929199V3.71361H0V4.21361ZM0.25 5.0249V3.96361H-0.25V5.0249H0.25ZM0.929199 4.7749H0V5.2749H0.929199V4.7749ZM1.1792 5.45264V5.0249H0.679199V5.45264H1.1792ZM0.0200195 5.70264H0.929199V5.20264H0.0200195V5.70264ZM0.27002 6.51393V5.45264H-0.22998V6.51393H0.27002ZM0.929199 6.26393H0.0200195V6.76393H0.929199V6.26393ZM1.1792 7.98698V6.51393H0.679199V7.98698H1.1792ZM2.38367 7.73698H0.929199V8.23698H2.38367V7.73698ZM2.13367 6.51393V7.98698H2.63367V6.51393H2.13367ZM4.62585 6.26393H2.38367V6.76393H4.62585V6.26393ZM4.37585 5.45264V6.51393H4.87585V5.45264H4.37585ZM2.38367 5.70264H4.62585V5.20264H2.38367V5.70264ZM2.13367 5.04066V5.45264H2.63367V5.04066H2.13367ZM3.1514 4.79066H2.38367V5.29066H3.1514V4.79066ZM3.01001 3.72938H2.72713V4.22938H3.01001V3.72938ZM3.35341 3.72938H3.01001V4.22938H3.35341V3.72938ZM3.43422 3.72938H3.35341V4.22938H3.43422V3.72938ZM5.20038 3.7138C4.86246 3.72939 4.28204 3.74516 3.43889 3.72942L3.42955 4.22933C4.28329 4.24527 4.87451 4.22936 5.22342 4.21327L5.20038 3.7138ZM6.39629 2.67223C6.41103 3.15743 5.91959 3.65728 5.19236 3.7143L5.23145 4.21277C6.12029 4.14307 6.92173 3.50243 6.89606 2.65706L6.39629 2.67223ZM5.08159 1.61559C5.86885 1.64431 6.39618 2.14962 6.39618 2.66464H6.89618C6.89618 1.78574 6.04984 1.15057 5.09981 1.11593L5.08159 1.61559ZM3.62632 1.5979C4.12737 1.59494 4.60347 1.59218 5.07847 1.61546L5.10294 1.11606C4.61192 1.092 4.12201 1.09496 3.62336 1.09791L3.62632 1.5979ZM3.62482 1.59791H3.62484V1.09791H3.62482V1.59791ZM3.62481 1.59791H3.62482V1.09791H3.62481V1.59791ZM3.6248 1.59791H3.62481V1.09791H3.6248V1.59791ZM3.62478 1.59791H3.6248V1.09791H3.62478V1.59791ZM3.62477 1.59791H3.62478V1.09791H3.62477V1.59791ZM3.62476 1.59791H3.62477V1.09791H3.62476V1.59791ZM3.11101 1.59992C3.28548 1.59992 3.45725 1.5989 3.62624 1.5979L3.62328 1.09791C3.45406 1.09891 3.28376 1.09992 3.11101 1.09992V1.59992ZM2.38377 1.59992H3.11101V1.09992H2.38377V1.59992ZM2.63377 3.96361V1.34992H2.13377V3.96361H2.63377ZM2.72713 3.71361H2.38377V4.21361H2.72713V3.71361ZM2.97713 3.97938V3.96361H2.47713V3.97938H2.97713Z" fill="white" mask="url(#path-1-inside-1)"/>
</svg>
